<svg width="311" height="270" viewBox="0 0 311 270" fill="none" xmlns="http://www.w3.org/2000/svg">
<path d="M183.111 13.6346C174.634 21.1924 167.332 27.2693 166.872 27.2182C166.413 27.2182 165.034 26.7586 163.757 26.299C158.753 24.4095 149.765 24.8181 145.22 27.1671C143.229 28.1374 143.229 28.1374 142.105 27.1671C131.024 17.1582 113.1 1.53198 112.793 1.53198C111.823 1.53198 110.444 3.62567 110.904 4.34061C111.21 4.69806 117.696 10.5706 125.356 17.3624L139.297 29.7715L135.263 31.9163C110.342 45.2445 78.1707 78.6417 50.4419 119.954C11.7338 177.71 -8.233 236.436 3.20579 258.956C7.13787 266.769 14.7978 270.548 23.8875 269.22C46.9183 265.748 80.1112 237.917 112.538 194.919L117.951 187.719L118.921 191.293C125.203 214.784 132.811 230.716 141.799 239.193C151.553 248.385 162.072 248.232 171.724 238.734C177.443 233.116 182.039 225.201 187.299 211.771C189.239 206.868 193.886 191.549 193.886 190.17C193.886 188.536 194.908 189.251 197.257 192.417C208.9 208.298 226.466 228.061 239.131 239.551C251.795 251.092 261.191 257.832 271.762 262.99C279.779 266.922 284.631 268.301 290.912 268.301C295.15 268.301 296.172 268.148 298.929 266.871C304.444 264.369 308.376 259.109 310.164 251.909C311.287 247.313 311.287 235.465 310.113 228.52C299.287 163.718 228.254 59.7473 175.758 31.8652C173.358 30.5885 171.417 29.363 171.468 29.2098C171.468 29.0055 178.107 22.9797 186.226 15.8305C194.397 8.68121 201.036 2.55328 201.036 2.24689C201.036 1.68518 199.401 0 198.84 0C198.635 0 191.588 6.12793 183.111 13.6346ZM161.766 32.1716C171.877 35.0824 174.226 51.1171 168.047 75.6288C165.34 86.4548 156.812 110.303 155.638 110.303C154.821 110.303 147.416 90.8465 144.608 81.195C141.084 68.9902 140.114 63.0155 140.063 53.364C140.012 43.7125 140.522 41.006 143.28 36.6654C144.914 34.061 146.803 32.8865 150.736 31.8141C153.493 31.1503 158.753 31.3035 161.766 32.1716ZM134.752 41.9763C133.679 46.3169 133.731 58.3685 134.854 65.1092C137.203 79.3055 143.331 98.1489 150.94 114.95L152.421 118.218L148.08 126.899C125.049 172.859 89.4052 219.431 57.7954 244.862C46.9694 253.543 34.4582 260.845 27.1047 262.684C16.7894 265.339 9.89544 261.918 7.0868 252.828C6.42295 250.581 6.21868 248.181 6.26975 241.287C6.26975 233.882 6.47401 231.636 7.6996 225.967C13.8275 196.553 30.424 160.807 55.0378 123.835C78.8856 87.9357 105.389 59.0323 129.492 42.4359C132.403 40.4443 134.956 38.8102 135.16 38.8102C135.365 38.8102 135.16 40.24 134.752 41.9763ZM180.66 41.6699C230.96 75.4245 290.912 164.841 303.474 224.946C305.21 233.372 305.67 244.453 304.495 249.815C303.372 254.922 301.074 258.701 297.857 260.692C295.763 261.969 294.691 262.275 291.474 262.377C286.52 262.633 282.486 261.611 275.847 258.445C263.643 252.624 251.948 243.789 236.578 228.776C215.487 208.145 194.397 180.774 176.677 151.104C171.315 142.117 163.553 127.818 160.489 121.231L159.059 118.116L162.379 110.252C174.788 80.9397 179.792 56.5811 176.32 41.7209C175.962 40.1379 175.809 38.8102 176.013 38.8102C176.166 38.8102 178.26 40.0868 180.66 41.6699ZM168.609 149.164C173.511 157.59 179.894 167.752 185.46 176.025L189.699 182.255L188.473 187.514C183.162 210.035 175.503 226.835 166.923 235.057C163.094 238.683 160.336 239.959 156.557 240.01C147.621 240.01 137.969 228.418 130.564 208.605C128.215 202.426 124.181 188.689 123.364 184.093L122.751 181.029L129.135 171.327C138.582 156.926 146.293 143.649 152.778 130.78L155.689 124.959L160.132 133.589C162.583 138.389 166.413 145.385 168.609 149.164Z" fill="url(#paint0_linear_30_12)"/>
<defs>
<linearGradient id="paint0_linear_30_12" x1="155.5" y1="0" x2="155.5" y2="269.481" gradientUnits="userSpaceOnUse">
<stop stop-color="#85F4BB"/>
<stop offset="1" stop-color="#8CD9E8"/>
</linearGradient>
</defs>
</svg>
